<?xml version="1.0" standalone="no"?><svg viewBox="0 0 1024 1024" version="1.1" xmlns="http://www.w3.org/2000/svg" width="1024" height="1024"><path d="M685.410462 27.372308S616.369231 0 512 0c-104.369231 0-173.410462 31.389538-173.410462 31.389538l346.939077 345.718154-0.118153-349.735384zM873.275077 149.700923c-73.806769-72.861538-145.132308-98.816-145.132308-98.816l-2.441846 486.478769 250.683077-247.335384c0 0.118154-29.223385-67.465846-103.108923-140.327385zM991.192615 339.889231l-350.444307 342.252307h354.540307s27.805538-68.135385 27.805539-171.165538c-0.118154-102.912-31.901538-171.086769-31.901539-171.086769zM730.978462 974.020923S799.507692 945.230769 873.314462 872.369231c73.767385-72.861538 100.155077-143.163077 100.155076-143.163077l-493.095384-2.441846 250.683077 247.335384zM338.471385 994.658462s69.080615 27.411692 173.410461 27.411692c104.448 0 173.449846-31.389538 173.449846-31.389539l-346.978461-345.718153 0.118154 349.735384zM150.646154 872.369231c73.767385 72.861538 145.092923 98.776615 145.092923 98.776615l2.481231-486.4-250.683077 247.296c0.078769-0.118154 29.302154 67.426462 103.108923 140.288zM28.750769 339.889231s-27.844923 68.174769-27.844923 171.204923c0 102.990769 31.783385 171.165538 31.783385 171.165538l350.444307-342.252307H28.711385V339.889231zM293.021538 48.049231S224.492308 76.8 150.685538 149.661538 50.569846 292.903385 50.569846 292.903385l493.095385 2.441846-250.683077-247.335385z" fill="#d4237a"></path></svg>